<svg xmlns="http://www.w3.org/2000/svg" width="50" height="50" viewBox="0 0 50 50"><g fill-rule="evenodd"><path d="M18.995 10.674c-0.687 0.185 -1.097 0.619 -1.289 1.366 -0.041 0.159 -0.383 1.696 -0.76 3.414s-0.697 3.175 -0.712 3.236l-0.026 0.111 9.901 -0.015c9.085 -0.014 9.928 -0.022 10.23 -0.098 1.645 -0.411 3.1 -1.662 3.625 -3.116 0.072 -0.199 0.272 -0.994 0.444 -1.768a401.125 401.125 0 0 1 0.438 -1.948c0.17 -0.738 0.113 -0.966 -0.29 -1.161 -0.276 -0.134 -21.067 -0.155 -21.561 -0.022m-3.488 11.078c-0.032 0.127 -0.129 0.568 -2.006 9.107a8599.25 8599.25 0 0 1 -1.548 7.031c-0.455 2.056 -0.481 2.312 -0.268 2.632 0.273 0.413 0.174 0.402 3.365 0.384l2.796 -0.015 0.44 -0.136c1.217 -0.377 1.964 -0.974 2.488 -1.987 0.337 -0.652 0.404 -0.907 1.319 -5.028 0.474 -2.135 0.873 -3.92 0.887 -3.967 0.023 -0.08 0.222 -0.086 3.288 -0.086 2.734 0 3.329 -0.012 3.671 -0.075 1.762 -0.326 3.225 -1.366 3.98 -2.83 0.591 -1.146 1.322 -4.452 1.069 -4.837 -0.221 -0.337 0.576 -0.312 -9.97 -0.313l-9.48 -0.001z" fill="#fbfbfb"/><path d="M0 25v25h50V0H0zM40.552 10.673c0.236 0.123 0.415 0.371 0.416 0.577 0.001 0.166 -0.668 3.206 -0.861 3.911 -0.474 1.738 -2.029 3.169 -3.851 3.546 -0.514 0.106 -20.044 0.147 -20.044 0.042 0 -0.211 1.53 -6.935 1.625 -7.141 0.264 -0.575 0.742 -0.906 1.458 -1.01 0.144 -0.021 4.941 -0.035 10.662 -0.032l10.4 0.006zm-5.868 11.024c0.274 0.114 0.423 0.34 0.423 0.639 0 0.25 -0.505 2.529 -0.752 3.397 -0.496 1.739 -1.782 3.074 -3.531 3.665 -0.846 0.286 -0.892 0.289 -4.501 0.289h-3.305l-0.871 3.918c-0.868 3.902 -1.027 4.532 -1.275 5.026 -0.572 1.139 -1.367 1.782 -2.688 2.174 -0.295 0.087 -5.597 0.165 -6.016 0.088 -0.211 -0.039 -0.526 -0.326 -0.599 -0.547 -0.095 -0.287 -0.034 -0.644 0.586 -3.457a11093 11093 0 0 0 2.347 -10.669c0.54 -2.457 0.991 -4.495 1.002 -4.529 0.032 -0.095 18.954 -0.089 19.181 0.006" fill="#040404"/><path d="M24.894 10.584c2.802 0.007 7.372 0.007 10.156 0s0.492 -0.013 -5.094 -0.013 -7.864 0.006 -5.062 0.013" fill="#848484"/></g></svg>